<svg width="35" height="35" viewBox="0 0 35 35" fill="none" xmlns="http://www.w3.org/2000/svg">
<path opacity="0.2" d="M17.5 0C14.0388 0 10.6554 1.02636 7.77753 2.94928C4.89967 4.87221 2.65665 7.60533 1.33212 10.803C0.00758245 14.0007 -0.338976 17.5194 0.336265 20.9141C1.01151 24.3087 2.67822 27.4269 5.12564 29.8744C7.57306 32.3218 10.6913 33.9885 14.0859 34.6637C17.4806 35.339 20.9993 34.9924 24.197 33.6679C27.3947 32.3433 30.1278 30.1003 32.0507 27.2225C33.9736 24.3446 35 20.9612 35 17.5C35 12.8587 33.1563 8.40752 29.8744 5.12563C26.5925 1.84374 22.1413 0 17.5 0ZM27.1375 12.1375L14.6375 24.6375C14.5213 24.7547 14.3831 24.8477 14.2307 24.9111C14.0784 24.9746 13.915 25.0072 13.75 25.0072C13.585 25.0072 13.4216 24.9746 13.2693 24.9111C13.117 24.8477 12.9787 24.7547 12.8625 24.6375L6.61251 18.3875C6.49596 18.2709 6.40351 18.1326 6.34043 17.9803C6.27736 17.828 6.24489 17.6648 6.24489 17.5C6.24489 17.1671 6.37713 16.8479 6.61251 16.6125C6.84789 16.3771 7.16713 16.2449 7.50001 16.2449C7.83288 16.2449 8.15213 16.3771 8.38751 16.6125L13.75 21.9875L25.3625 10.3625C25.5979 10.1271 25.9171 9.99488 26.25 9.99488C26.5829 9.99488 26.9021 10.1271 27.1375 10.3625C27.3729 10.5979 27.5051 10.9171 27.5051 11.25C27.5051 11.5829 27.3729 11.9021 27.1375 12.1375Z" fill="#ECE987"/>
</svg>
