<svg width="35" height="32" viewBox="0 0 35 32" fill="none" xmlns="http://www.w3.org/2000/svg">
<path d="M18.9457 17.4533C21.3619 17.4533 23.3206 19.4068 23.3206 21.8166L23.3183 23.9935C23.6184 29.3358 19.4927 32 11.842 32C4.21602 32 0 29.3707 0 24.0697V21.8166C0 19.4068 1.95872 17.4533 4.37492 17.4533H18.9457ZM30.6139 17.4533C33.0301 17.4533 34.9888 19.4068 34.9888 21.8166L34.9866 23.3483C35.2503 28.1406 31.6049 30.5432 24.9417 30.5432C24.0372 30.5432 23.1869 30.4993 22.3927 30.4113C23.9581 28.9696 24.7955 27.0132 24.7926 24.5409L24.7744 23.9121L24.7789 21.8166C24.7789 20.0783 24.0145 18.5181 22.8028 17.4521L30.6139 17.4533ZM11.6664 0C15.6941 0 18.9592 3.2564 18.9592 7.27337C18.9592 11.2903 15.6941 14.5467 11.6664 14.5467C7.6388 14.5467 4.37374 11.2903 4.37374 7.27337C4.37374 3.2564 7.6388 0 11.6664 0ZM26.2495 2.90888C29.4711 2.90888 32.0827 5.51357 32.0827 8.72663C32.0827 11.9397 29.4711 14.5444 26.2495 14.5444C23.0279 14.5444 20.4163 11.9397 20.4163 8.72663C20.4163 5.51357 23.0279 2.90888 26.2495 2.90888Z" fill="#ECE987" fill-opacity="0.2"/>
</svg>
